<svg width="144" height="144" viewBox="0 0 144 144" fill="none" xmlns="http://www.w3.org/2000/svg">
<path d="M59.16 108C58.3373 107.997 57.524 107.826 56.7705 107.495C56.017 107.165 55.3395 106.683 54.78 106.08L25.62 75.06C24.53 73.8983 23.9461 72.3512 23.9967 70.759C24.0473 69.1669 24.7284 67.66 25.89 66.57C27.0517 65.4799 28.5988 64.896 30.1909 64.9466C31.7831 64.9972 33.29 65.6783 34.38 66.84L59.1 93.18L109.56 37.98C110.072 37.3423 110.709 36.816 111.432 36.4335C112.155 36.051 112.948 35.8203 113.764 35.7556C114.579 35.6909 115.399 35.7936 116.173 36.0573C116.947 36.321 117.659 36.7401 118.265 37.289C118.872 37.8379 119.359 38.505 119.698 39.2492C120.037 39.9934 120.221 40.7991 120.237 41.6168C120.253 42.4344 120.102 43.2468 119.793 44.004C119.484 44.7612 119.024 45.4472 118.44 46.02L63.6 106.02C63.0459 106.634 62.3707 107.127 61.617 107.468C60.8632 107.808 60.0472 107.99 59.22 108H59.16Z" fill="#DFCFCF"/>
</svg>
