<svg width="29" height="28" viewBox="0 0 29 28" fill="none" xmlns="http://www.w3.org/2000/svg">
<path d="M5.16676 9.33334L4.34192 10.1582L3.51709 9.33334L4.34192 8.5085L5.16676 9.33334ZM11.0001 23.3333C10.6907 23.3333 10.3939 23.2104 10.1751 22.9916C9.95634 22.7728 9.83342 22.4761 9.83342 22.1667C9.83342 21.8573 9.95634 21.5605 10.1751 21.3417C10.3939 21.1229 10.6907 21 11.0001 21V23.3333ZM10.1753 15.9915L4.34192 10.1582L5.99159 8.5085L11.8249 14.3418L10.1753 15.9915ZM4.34192 8.5085L10.1753 2.67517L11.8249 4.32484L5.99159 10.1582L4.34192 8.5085ZM5.16676 8.16667H17.4168V10.5H5.16676V8.16667ZM17.4168 23.3333H11.0001V21H17.4168V23.3333ZM25.0001 15.75C25.0001 17.7612 24.2011 19.6901 22.779 21.1122C21.3568 22.5344 19.428 23.3333 17.4168 23.3333V21C18.1062 21 18.7889 20.8642 19.4258 20.6004C20.0628 20.3365 20.6416 19.9498 21.1291 19.4623C21.6166 18.9748 22.0033 18.3961 22.2671 17.7591C22.531 17.1221 22.6668 16.4394 22.6668 15.75H25.0001ZM17.4168 8.16667C19.428 8.16667 21.3568 8.96563 22.779 10.3878C24.2011 11.8099 25.0001 13.7388 25.0001 15.75H22.6668C22.6668 15.0606 22.531 14.3779 22.2671 13.7409C22.0033 13.104 21.6166 12.5252 21.1291 12.0377C20.6416 11.5502 20.0628 11.1635 19.4258 10.8996C18.7889 10.6358 18.1062 10.5 17.4168 10.5V8.16667Z" fill="#DFCFCF"/>
</svg>
